<svg width="126" height="129" viewBox="0 0 126 129" fill="none" xmlns="http://www.w3.org/2000/svg">
<path d="M18.5023 115.463C16.3334 116.233 14.1499 114.34 14.5743 112.058L18.4042 91.4698C18.8282 89.1906 21.5369 88.2324 23.2813 89.7444L39.0224 103.388C40.7668 104.9 40.2397 107.749 38.0732 108.518L18.5023 115.463Z" fill="white"/>
<ellipse cx="65.7955" cy="60.7985" rx="60.2044" ry="60.7985" fill="white"/>
<path d="M63.0455 94.6479H27.8792C21.7938 94.6479 24.1343 85.6661 24.1343 85.6661C26.0068 82.357 28.8154 80.4661 31.1559 77.6298C33.4964 74.7935 34.9007 69.5935 35.8369 60.6118C36.7732 51.63 36.0849 46.0489 39.5818 39.3392C48.352 22.5113 62.0518 21.8624 62.9792 21.8476C62.4982 21.74 60.6463 11.9213 69.5404 11.9213C78.9025 11.9213 76.562 21.6018 76.562 21.6018C76.562 21.6018 97.1586 27.5211 101.372 48.7937C93.8819 45.0119 87.7965 41.7029 81.243 39.812C78.1391 38.9164 57.8378 37.4483 53.6249 39.812C53.6249 39.812 47.0714 44.0665 47.0714 52.1028C45.6671 65.339 43.3266 76.6844 46.6033 83.7752C50.8163 86.6116 83.9229 85.7415 83.9229 85.7415C83.9229 85.7415 83.7354 80.0412 87.1996 74.7935C89.072 71.9571 95.232 72.4299 95.232 71.0117C95.232 69.1208 95.6255 50.2118 95.6255 50.2118C95.6255 50.2118 114.132 55.7785 114.743 58.2481C115.679 62.03 115.211 79.048 114.743 80.9389C114.516 81.8561 113.031 81.8568 111.935 81.8843C111.466 84.2479 112.403 89.9206 106.785 90.3933C101.654 90.8252 100.795 83.7752 100.795 83.7752H96.019C96.9552 95.1206 92.2742 94.6479 92.2742 94.6479H76.5738C76.5738 94.6479 76.5953 99.7413 70.0419 99.7413C63.4884 99.7413 63.0455 94.6479 63.0455 94.6479Z" fill="#ED2933"/>
<path d="M106.073 80.9389C106.073 77.9904 106.635 76.6844 107.29 76.6844C107.945 76.6844 108.414 78.1026 108.414 80.9389C108.414 83.7752 107.945 85.1934 107.29 85.1934C106.635 85.1934 106.073 83.8874 106.073 80.9389Z" fill="white"/>
<path d="M89.54 83.3025C89.54 78.2189 90.9444 77.6298 90.9444 77.6298C90.9444 77.6298 92.8168 76.9096 92.8168 83.3025C92.8168 89.6954 90.9444 88.9752 90.9444 88.9752C90.9444 88.9752 89.54 88.3861 89.54 83.3025Z" fill="white"/>
<ellipse cx="71.3383" cy="75.7389" rx="3.74483" ry="3.78178" fill="#ED2933"/>
<ellipse cx="51.7714" cy="75.7389" rx="3.74483" ry="3.78178" fill="#ED2933"/>
<path d="M54.0921 46.3323C54.0921 46.3323 75.027 45.4829 77.639 47.0021C77.8669 47.1346 77.953 47.3988 78.0383 47.6483C79.2802 51.2779 78.9923 60.6858 76.9647 64.7994C75.5644 67.6404 53.1586 66.6934 49.8911 66.2199C48.584 66.0305 48.4907 65.2729 49.8911 56.2761C51.2914 47.2794 54.0921 46.3323 54.0921 46.3323Z" fill="#ED2933"/>
<path d="M83.7532 63.0507C82.3489 62.6962 83.6812 47.9236 86.0938 47.9236C88.2248 47.9236 89.7987 48.2812 90.7748 49.8145C91.3408 50.7036 90.6287 62.1791 88.9024 63.0507C87.9662 63.5235 86.1988 63.6682 83.7532 63.0507Z" fill="#ED2933"/>
</svg>
